<svg width="96" height="96" xmlns="http://www.w3.org/2000/svg" xmlns:xlink="http://www.w3.org/1999/xlink" xml:space="preserve" overflow="hidden"><defs><clipPath id="clip0"><rect x="286" y="433" width="96" height="96"/></clipPath></defs><g clip-path="url(#clip0)" transform="translate(-286 -433)"><path d="M334 443C313 443 296 460 296 481 296 502 313 519 334 519 355 519 372 502 372 481 372 460 355 443 334 443ZM324.9 513.7 327.5 512.1 319.9 500.4 306.4 496.8 305.6 499.8C302.3 494.8 300.2 488.8 300 482.4L302.4 484.4 311.2 473.6 310.5 459.7 307.5 459.9C311.3 455.1 316.4 451.3 322.3 449.2L321 452 334 457 347 452 345.9 449.1C351.8 451.3 356.8 455 360.7 459.8L357.7 459.6 357 473.5 365.8 484.3 368.2 482.3C367.9 488.7 365.9 494.6 362.6 499.7L361.8 496.7 348.3 500.3 340.7 512 343.3 513.6C340.4 514.4 337.3 514.9 334.2 514.9 331.1 514.9 327.8 514.6 324.9 513.7Z"/><path d="M347 479 334 469 321 479 326 494 334 494 342 494Z"/></g></svg>