<svg width="96" height="96" xmlns="http://www.w3.org/2000/svg" xmlns:xlink="http://www.w3.org/1999/xlink" xml:space="preserve" overflow="hidden"><defs><clipPath id="clip0"><rect x="312" y="465" width="96" height="96"/></clipPath></defs><g clip-path="url(#clip0)" transform="translate(-312 -465)"><path d="M350 507C350 510.314 347.314 513 344 513 340.686 513 338 510.314 338 507 338 503.686 340.686 501 344 501 347.314 501 350 503.686 350 507Z" fill="#FFFFFF"/><path d="M382 507C382 510.314 379.314 513 376 513 372.686 513 370 510.314 370 507 370 503.686 372.686 501 376 501 379.314 501 382 503.686 382 507Z" fill="#FFFFFF"/><path d="M378.2 526C377.5 526 376.9 526.3 376.6 526.8 372.8 531.8 366.8 534.9 360 534.9 353.2 534.9 347.3 531.8 343.4 526.8 343 526.3 342.4 526 341.8 526 340.7 526 339.8 526.9 339.8 528 339.8 528.4 339.9 528.8 340.2 529.2 344.8 535.2 351.9 539 360 539 368.1 539 375.2 535.2 379.8 529.2 380 528.9 380.2 528.5 380.2 528 380.2 526.9 379.3 526 378.2 526Z" fill="#FFFFFF"/><path d="M360 479C378.7 479 394 494.3 394 513 394 531.7 378.7 547 360 547 341.3 547 326 531.7 326 513 326 494.3 341.3 479 360 479M360 475C339 475 322 492 322 513 322 534 339 551 360 551 381 551 398 534 398 513 398 492 381 475 360 475L360 475Z" fill="#FFFFFF"/></g></svg>