<svg width="96" height="96" xmlns="http://www.w3.org/2000/svg" xmlns:xlink="http://www.w3.org/1999/xlink" xml:space="preserve" overflow="hidden"><defs><clipPath id="clip0"><rect x="284" y="434" width="96" height="96"/></clipPath></defs><g clip-path="url(#clip0)" transform="translate(-284 -434)"><path d="M356.9 480.5C353.4 484.1 350.1 486.4 342.9 487.2 344.8 485.3 347 483.4 348.9 481.1 349.7 480.2 351.2 478.2 351.2 478.1 352.9 475.3 353.9 472.1 353.9 468.6L353.9 455.6 360.9 455.6 360.9 470.8C361 471 361.2 476 356.9 480.5ZM307.2 480.5C302.8 476 303 471 303 470.8L303 455.5 310 455.5 310 468.5C310 472 311 475.2 312.7 478 312.7 478.1 314.2 480.2 315 481 317 483.3 319.1 485.2 321 487.1 314 486.3 310.6 484 307.2 480.5ZM367 470.5 367 449.5 354 449.5 354 442.5 332 442.5 310 442.5 310 449.5 297 449.5 297 470.4C297 471.4 297 478.3 302.7 484.4 308.2 490.2 314.9 493.2 326.6 493.4 327.5 494.9 328 496.6 328 498.4L328 511.4 323 511.4C320.8 511.4 319 513.2 319 515.4L314 515.4C311.8 515.4 310 517.2 310 519.4L310 521.4 354 521.4 354 519.4C354 517.2 352.2 515.4 350 515.4L345 515.4C345 513.2 343.2 511.4 341 511.4L336 511.4 336 498.5C336 496.7 336.5 495 337.4 493.5 349.1 493.3 355.8 490.2 361.3 484.5 367 478.5 367 471.5 367 470.5Z" fill="#FFFFFF"/></g></svg>